HIERARCHY
ROOT Hips
{
	OFFSET 0.000000 0.000000 0.000000
	CHANNELS 6 Xposition Yposition Zposition Zrotation Yrotation Xrotation 
	JOINT LHipJoint
	{
		OFFSET 0.000000 0.000000 0.000000
		CHANNELS 3 Zrotation Yrotation Xrotation
		JOINT LeftUpLeg
		{
			OFFSET 1.363060 -1.794630 0.839290
			CHANNELS 3 Zrotation Yrotation Xrotation
			JOINT LeftLeg
			{
				OFFSET 2.448110 -6.726130 0.000000
				CHANNELS 3 Zrotation Yrotation Xrotation
				JOINT LeftFoot
				{
					OFFSET 2.562200 -7.039590 0.000000
					CHANNELS 3 Zrotation Yrotation Xrotation
					JOINT LeftToeBase
					{
						OFFSET 0.157640 -0.433110 2.322550
						CHANNELS 3 Zrotation Yrotation Xrotation
						End Site
						{
							OFFSET 0.000000 0.000000 0.000000
						}
					}
				}
			}
		}
	}
	JOINT RHipJoint
	{
		OFFSET 0.000000 0.000000 0.000000
		CHANNELS 3 Zrotation Yrotation Xrotation
		JOINT RightUpLeg
		{
			OFFSET -1.305520 -1.794630 0.839290
			CHANNELS 3 Zrotation Yrotation Xrotation
			JOINT RightLeg
			{
				OFFSET -2.542530 -6.985550 0.000000
				CHANNELS 3 Zrotation Yrotation Xrotation
				JOINT RightFoot
				{
					OFFSET -2.568260 -7.056230 0.000000
					CHANNELS 3 Zrotation Yrotation Xrotation
					JOINT RightToeBase
					{
						OFFSET -0.164730 -0.452590 2.363150
						CHANNELS 3 Zrotation Yrotation Xrotation
						End Site
						{
							OFFSET 0.000000 0.000000 0.000000
						}
					}
				}
			}
		}
	}
	JOINT LowerBack
	{
		OFFSET 0.000000 0.000000 0.000000
		CHANNELS 3 Zrotation Yrotation Xrotation
		JOINT Spine
		{
			OFFSET 0.028270 2.035590 -0.193380
			CHANNELS 3 Zrotation Yrotation Xrotation
			JOINT Spine1
			{
				OFFSET 0.056720 2.048850 -0.042750
				CHANNELS 3 Zrotation Yrotation Xrotation
				JOINT Neck
				{
					OFFSET 0.000000 0.000000 0.000000
					CHANNELS 3 Zrotation Yrotation Xrotation
					JOINT Neck1
					{
						OFFSET -0.054170 1.746240 0.172020
						CHANNELS 3 Zrotation Yrotation Xrotation
						JOINT Head
						{
							OFFSET 0.104070 1.761360 -0.123970
							CHANNELS 3 Zrotation Yrotation Xrotation
							End Site
							{
								OFFSET 0.000000 0.000000 0.000000
							}
						}
					}
				}
				JOINT LeftShoulder
				{
					OFFSET 0.000000 0.000000 0.000000
					CHANNELS 3 Zrotation Yrotation Xrotation
					JOINT LeftArm
					{
						OFFSET 3.362410 1.200890 -0.311210
						CHANNELS 3 Zrotation Yrotation Xrotation
						JOINT LeftForeArm
						{
							OFFSET 4.983000 -0.000000 -0.000000
							CHANNELS 3 Zrotation Yrotation Xrotation
							JOINT LeftHand
							{
								OFFSET 3.483560 -0.000000 -0.000000
								CHANNELS 3 Zrotation Yrotation Xrotation
								JOINT LeftFingerBase
								{
									OFFSET 0.000000 0.000000 0.000000
									CHANNELS 3 Zrotation Yrotation Xrotation
									JOINT LeftHandIndex1
									{
										OFFSET 0.715260 -0.000000 -0.000000
										CHANNELS 3 Zrotation Yrotation Xrotation
										End Site
										{
											OFFSET 0.000000 0.000000 0.000000
										}
									}
								}
								JOINT LThumb
								{
									OFFSET 0.000000 0.000000 0.000000
									CHANNELS 3 Zrotation Yrotation Xrotation
									End Site
									{
										OFFSET 0.000000 0.000000 0.000000
									}
								}
							}
						}
					}
				}
				JOINT RightShoulder
				{
					OFFSET 0.000000 0.000000 0.000000
					CHANNELS 3 Zrotation Yrotation Xrotation
					JOINT RightArm
					{
						OFFSET -3.136600 1.374050 -0.404650
						CHANNELS 3 Zrotation Yrotation Xrotation
						JOINT RightForeArm
						{
							OFFSET -5.241900 -0.000000 -0.000000
							CHANNELS 3 Zrotation Yrotation Xrotation
							JOINT RightHand
							{
								OFFSET -3.444170 -0.000000 -0.000000
								CHANNELS 3 Zrotation Yrotation Xrotation
								JOINT RightFingerBase
								{
									OFFSET 0.000000 0.000000 0.000000
									CHANNELS 3 Zrotation Yrotation Xrotation
									JOINT RightHandIndex1
									{
										OFFSET -0.622530 -0.000000 -0.000000
										CHANNELS 3 Zrotation Yrotation Xrotation
										End Site
										{
											OFFSET 0.000000 0.000000 0.000000
										}
									}
								}
								JOINT RThumb
								{
									OFFSET 0.000000 0.000000 0.000000
									CHANNELS 3 Zrotation Yrotation Xrotation
									End Site
									{
										OFFSET 0.000000 0.000000 0.000000
									}
								}
							}
						}
					}
				}
			}
		}
	}
}
MOTION
Frames: 10
Frame Time: 0.008333
3.507205 19.431290 -4.712790 171.437431 -36.129848 -172.105183 7.749839 1.226825 -2.728788 15.443000 -21.323031 -10.194578 33.200904 14.318160 133.354677 0.097047 2.168305 -4.139546 0.312400 3.592900 9.934200 -15.435229 -1.832953 -2.686734 13.027430 22.007921 -7.783625 0.185618 0.448236 1.859766 -5.134140 -32.172999 27.673548 -0.103900 2.078600 -5.723100 -13.046591 -5.428722 3.604553 -0.327700 -7.471112 -3.166073 2.592367 -4.822643 10.859069 -6.549303 -4.468809 -20.634015 7.756301 -11.938960 19.497930 1.057400 -5.911700 32.340900 9.432080 4.113072 -2.276287 -19.053063 14.751271 40.015822 93.632403 -59.561337 -61.130204 1.777199 -0.732763 17.688747 18.495498 2.801504 0.894100 -7.125000 0.000000 0.000000 -8.138900 33.036600 2.406700 -10.840641 0.351083 3.662091 85.074528 -55.036325 -17.001190 -54.253843 55.943814 -24.305425 0.503685 -1.781093 3.764738 -4.110023 -5.983642 0.350200 7.125000 0.000000 0.000000 17.800100 -33.787400 5.106100 
3.541174 19.174823 -5.034966 170.998056 -36.428900 -171.874575 7.726900 1.123391 -2.582740 15.453786 -24.087527 -10.982041 33.652503 14.107153 134.977912 0.118890 2.969521 -5.356829 0.243600 3.176000 8.769100 -15.419841 -1.839244 -3.007354 13.574843 21.426088 -6.443768 0.177371 0.610191 1.874403 -5.170830 -32.704984 28.821962 -0.038300 1.263000 -3.472700 -13.253091 -5.208259 3.597255 -0.396884 -7.167825 -3.145497 2.488274 -4.674887 10.958900 -6.705768 -4.727175 -20.777398 7.710256 -12.061723 19.422315 1.058600 -5.936500 32.245000 9.379861 4.192135 -2.348827 -19.990166 15.499666 39.804498 93.605696 -59.635935 -61.041981 1.753602 -0.687850 17.326507 18.441891 3.008004 0.947300 -7.125000 0.000000 0.000000 -8.172500 33.224400 2.379400 -10.834063 0.296261 3.845020 86.659720 -54.810943 -16.940708 -56.020994 56.916517 -25.660338 0.515698 -1.736027 3.820142 -4.043428 -5.793326 0.334300 7.125000 0.000000 0.000000 17.814600 -33.647800 5.173900 
3.575143 18.911669 -5.349817 170.655419 -36.731422 -171.176849 7.825728 0.915305 -2.769677 15.342829 -26.851544 -11.919434 34.117173 14.029173 136.539303 0.123927 3.898209 -6.195472 0.195200 2.844900 7.847200 -15.344568 -1.648587 -2.149448 12.679191 24.263390 -10.913815 0.622121 -2.899171 10.200148 -4.072844 -35.392330 22.320884 -0.000700 -0.170000 0.467100 -13.293433 -4.995014 3.147885 -0.454951 -6.897448 -3.123611 2.372918 -4.548577 11.017923 -6.849104 -4.998453 -20.930396 7.661273 -12.161505 19.313605 1.052100 -5.941200 32.074900 9.340293 4.229726 -2.386839 -21.144571 16.116341 39.588043 93.617251 -59.696503 -60.962968 1.734336 -0.639435 17.102214 18.460557 3.211546 1.000900 -7.125000 0.000000 0.000000 -8.149500 33.401100 2.337400 -10.835964 0.246930 3.960710 88.113970 -54.441355 -16.686081 -57.689095 57.775175 -26.921515 0.527470 -1.699039 3.829606 -4.020400 -5.646703 0.324400 7.125000 0.000000 0.000000 17.802900 -33.543500 5.217500 
3.609325 18.642994 -5.655964 170.274623 -36.994098 -170.686766 7.806326 0.725041 -2.744002 15.240977 -29.656844 -12.954207 34.554020 13.963100 138.008793 0.114391 4.919795 -6.719582 0.166700 2.630600 7.251800 -15.006991 -1.583705 -1.852689 11.906301 25.528917 -13.371341 0.677076 -5.329632 15.678781 -2.288070 -37.893546 15.063709 -0.075200 -1.768500 4.866200 -13.333555 -4.757413 2.987185 -0.510579 -6.595433 -3.102049 2.225176 -4.381263 11.032849 -6.971058 -5.282552 -21.063865 7.615054 -12.252556 19.152510 1.042900 -5.933600 31.832200 9.309531 4.255235 -2.391693 -22.491369 16.591656 39.386799 93.611992 -59.750194 -60.842770 1.719755 -0.589211 17.139459 18.543865 3.423088 1.057700 -7.125000 0.000000 0.000000 -8.077500 33.576100 2.281900 -10.853166 0.231230 4.022866 89.405270 -53.907027 -16.179012 -59.236495 58.520092 -28.067377 0.542133 -1.671055 3.738946 -4.015302 -5.568469 0.320700 7.125000 0.000000 0.000000 17.788700 -33.495800 5.234600 
3.643506 18.369012 -5.951177 169.979482 -37.202060 -170.392993 7.737867 0.556396 -2.596589 15.245978 -32.455669 -14.113271 34.973106 13.927849 139.391505 0.087861 5.950610 -7.016347 0.157200 2.554800 7.041600 -14.557891 -1.623950 -1.850088 11.691730 25.102841 -15.192435 0.332732 -7.376742 20.289230 -0.540205 -38.053486 6.306974 -0.261300 -3.288500 9.082900 -13.256215 -4.490572 3.040423 -0.560034 -6.265751 -3.077808 2.050618 -4.175234 10.987061 -7.137496 -5.587621 -21.153876 7.595106 -12.343980 18.960834 1.078700 -5.941600 31.549300 9.286516 4.272704 -2.363201 -24.068516 16.942141 39.211307 93.623695 -59.798016 -60.710908 1.708335 -0.537216 17.414041 18.664040 3.643159 1.117000 -7.125000 0.000000 0.000000 -7.977200 33.750400 2.219100 -10.891708 0.253849 4.036854 90.434391 -53.160270 -15.326853 -60.540510 59.116040 -28.999801 0.557314 -1.650324 3.595489 -4.006050 -5.503214 0.317000 7.125000 0.000000 0.000000 17.779000 -33.452700 5.251000 
3.677263 18.093332 -6.232271 169.885649 -37.409725 -170.286579 7.696510 0.370524 -2.447206 15.366580 -35.207976 -15.398953 35.373262 13.927854 140.677616 0.045838 6.944864 -7.173239 0.159400 2.572300 7.090300 -14.210071 -1.624063 -1.884479 11.804475 24.577629 -16.763395 -0.270361 -9.233910 24.794767 -0.218099 -34.954871 0.535446 -0.216500 -2.995100 8.265100 -12.923565 -4.207376 3.262657 -0.602019 -5.932410 -3.048874 1.809349 -3.949494 10.868304 -7.281892 -5.917455 -21.241989 7.582337 -12.471882 18.795173 1.117300 -5.946600 31.156200 9.274016 4.277205 -2.306910 -25.884251 17.157955 39.049475 93.589935 -59.839534 -60.512209 1.697323 -0.484321 17.921543 18.774100 3.857786 1.172200 -7.125000 0.000000 0.000000 -7.883000 33.910000 2.161700 -10.952222 0.306515 4.009080 91.191510 -52.148259 -14.105517 -61.531748 59.563015 -29.668625 0.571275 -1.637584 3.509024 -4.000368 -5.439054 0.313100 7.125000 0.000000 0.000000 17.764600 -33.403800 5.268500 
3.709640 17.818606 -6.495851 170.030584 -37.568554 -170.421654 7.692539 0.181295 -2.320484 15.648539 -37.782389 -16.807089 35.748830 13.956729 141.849095 -0.003355 7.842379 -7.350738 0.168200 2.642500 7.284900 -13.986787 -1.586944 -1.905254 12.202594 24.139378 -18.228483 -1.001608 -10.938431 29.362850 -0.978992 -29.338991 -0.034168 -0.000000 0.042300 -0.116100 -12.315158 -3.897425 3.696349 -0.634943 -5.587922 -3.015574 1.499700 -3.697702 10.643801 -7.397030 -6.231345 -21.299935 7.578556 -12.588918 18.561979 1.153100 -5.948600 30.782600 9.282216 4.257271 -2.223103 -27.963599 17.276733 38.914845 93.486134 -59.878791 -60.227870 1.685564 -0.430267 18.582468 18.865046 4.056398 1.220200 -7.125000 0.000000 0.000000 -7.799800 34.046700 2.112400 -11.032318 0.383447 3.944555 91.595980 -50.808836 -12.429482 -62.087600 59.838874 -29.985548 0.582054 -1.635957 3.579822 -4.022359 -5.388397 0.311600 7.125000 0.000000 0.000000 17.727600 -33.359900 5.276300 
3.740106 17.550781 -6.739154 170.390819 -37.584022 -170.857894 7.703342 0.009301 -2.211570 15.991443 -39.989542 -18.267764 36.084503 14.004368 142.870037 -0.052735 8.610301 -7.596693 0.178200 2.719000 7.497300 -13.807552 -1.534397 -1.931806 12.818204 23.772156 -19.524106 -1.846186 -12.501226 33.776228 -1.499300 -23.159988 0.492646 -0.419500 4.157400 -11.519800 -11.481101 -3.548562 4.412169 -0.656888 -5.214686 -2.971076 1.146094 -3.417034 10.325142 -7.484606 -6.521832 -21.364616 7.571568 -12.670064 18.295653 1.178100 -5.933100 30.396200 9.315522 4.215524 -2.115256 -30.367703 17.356625 38.769981 93.294728 -59.923316 -59.847903 1.670636 -0.372517 19.302705 18.926910 4.269380 1.270100 -7.125000 0.000000 0.000000 -7.736600 34.193500 2.067300 -11.135664 0.485350 3.837589 91.564574 -49.033744 -10.233619 -62.076872 59.920889 -29.861568 0.587160 -1.646973 3.930507 -4.090144 -5.345509 0.313000 7.125000 0.000000 0.000000 17.651900 -33.316300 5.271400 
3.766857 17.297924 -6.961864 170.977362 -37.385857 -171.641958 7.720859 -0.129644 -2.133972 16.323236 -41.581666 -19.743071 36.363849 14.056047 143.702211 -0.098166 9.327834 -7.959246 0.186600 2.781800 7.671900 -13.655287 -1.473716 -1.958938 13.674303 23.510663 -20.585698 -2.740903 -13.885109 37.837568 -1.518250 -18.057698 -0.204393 -1.274400 7.154700 -20.174500 -10.436123 -3.165172 5.444416 -0.666505 -4.810794 -2.917435 0.746273 -3.107508 9.897461 -7.507178 -6.745187 -21.436309 7.542230 -12.662562 17.997506 1.168100 -5.874900 29.977100 9.382284 4.147797 -1.992188 -33.073995 17.503236 38.646042 93.061599 -59.974137 -59.423664 1.652600 -0.309143 19.967269 18.984133 4.534907 1.336600 -7.125000 0.000000 0.000000 -7.678000 34.393400 2.013800 -11.257305 0.605359 3.684814 91.052917 -46.792335 -7.460800 -61.474687 59.807894 -29.293643 0.590582 -1.674581 4.601928 -4.210429 -5.413920 0.326700 7.125000 0.000000 0.000000 17.547900 -33.369200 5.214000 
3.787344 17.067570 -7.165254 171.800582 -36.942222 -172.755377 7.743107 -0.224370 -2.105652 16.616822 -42.322624 -21.244161 36.573004 14.105808 144.302663 -0.138727 10.071347 -8.456177 0.192300 2.824000 7.789100 -13.540039 -1.410932 -1.977650 14.810365 23.362029 -21.355282 -3.587970 -15.044214 41.406764 -1.317200 -14.748004 -2.416002 -1.691200 8.190800 -23.295100 -9.176819 -2.767675 6.731460 -0.662901 -4.378662 -2.852372 0.297001 -2.775291 9.399884 -7.495678 -6.893521 -21.515825 7.495605 -12.552189 17.679576 1.145600 -5.782600 29.552100 9.482888 4.058697 -1.857588 -36.038759 17.749304 38.550796 92.738915 -60.039205 -58.918856 1.631106 -0.238877 20.481239 19.055991 4.862840 1.425100 -7.125000 0.000000 0.000000 -7.609500 34.659300 1.946000 -11.397875 0.733206 3.486665 90.090015 -44.050498 -4.158970 -60.269945 59.500502 -28.292315 0.594414 -1.715669 5.618290 -4.348973 -5.602218 0.352600 7.125000 0.000000 0.000000 17.442300 -33.530200 5.108700 
